<svg width="19" height="10" viewBox="0 0 19 10" fill="none" xmlns="http://www.w3.org/2000/svg">
<g clip-path="url(#clip0_788_15)">
<path d="M1 9.76187H2.50034V4.47671C2.4843 4.07607 2.54517 3.67615 2.67926 3.30111C2.81336 2.92607 3.01789 2.5837 3.28051 2.29468C3.80863 1.73568 4.61882 1.44664 5.71406 1.44664C6.80931 1.44664 7.59549 1.71662 8.13261 2.25974C8.40254 2.54287 8.61332 2.88282 8.75133 3.25759C8.88934 3.63236 8.9515 4.03362 8.93379 4.43542V9.76187H10.4341V4.37825C10.417 3.97953 10.4829 3.5817 10.627 3.21288C10.7712 2.84406 10.9901 2.51326 11.2683 2.24386C11.8384 1.71979 12.6456 1.44664 13.7019 1.44664C14.7581 1.44664 15.5023 1.71027 16.0544 2.24386C16.6065 2.77746 16.8646 3.5588 16.8646 4.58788V9.76187H18.3649V4.24168C18.3833 3.70439 18.2798 3.17027 18.0631 2.684C17.8465 2.19772 17.523 1.77344 17.1196 1.44664C16.2815 0.745768 15.1142 0.39533 13.6178 0.39533C11.7874 0.39533 10.4751 0.95963 9.68096 2.08823C8.82277 0.95963 7.50447 0.39533 5.72607 0.39533C4.26174 0.39533 3.18949 0.829407 2.50934 1.69756V0.639895H1V9.76187ZM21.5156 8.62162C22.7681 9.55111 24.2683 10.0329 25.7976 9.9969C27.365 10.0444 28.9035 9.54435 30.1756 8.57398C31.3919 7.61901 32 6.50841 32 5.24217C32 3.91241 31.4059 2.77534 30.2176 1.83096C29.0293 0.886578 27.556 0.411211 25.7976 0.404858C24.2465 0.357778 22.7249 0.859624 21.4736 1.83096C20.2734 2.77323 19.6732 3.9103 19.6732 5.24217C19.6732 6.57405 20.2824 7.70053 21.5006 8.62162H21.5156ZM22.6049 2.52972C23.5333 1.81154 24.6568 1.43149 25.8066 1.44664C26.9837 1.4118 28.1405 1.77689 29.1073 2.48843C29.541 2.78795 29.8955 3.19933 30.1375 3.68385C30.3794 4.16837 30.501 4.7101 30.4907 5.25805C30.4907 6.29137 30.0306 7.16587 29.1103 7.88157C28.1491 8.60792 26.9902 8.98259 25.8096 8.94877C24.6294 8.98932 23.4718 8.60031 22.5299 7.84663C21.6437 7.11611 21.1996 6.25325 21.1976 5.25805C21.1964 4.7147 21.3248 4.17982 21.5708 3.70292C21.8168 3.22601 22.1724 2.8225 22.6049 2.52972ZM23.5051 -0.897373H25.1074V-3H23.4871V-0.897373H23.5051ZM26.6288 -0.897373H28.2311V-3H26.6108V-0.897373H26.6288Z" fill="#4971B7"/>
</g>
<defs>
<clipPath id="clip0_788_15">
<rect width="19" height="10" fill="white"/>
</clipPath>
</defs>
</svg>
