<svg width="183" height="36" viewBox="0 0 183 36" fill="none" xmlns="http://www.w3.org/2000/svg">
<mask id="path-1-outside-1_1283_40" maskUnits="userSpaceOnUse" x="4.51489" y="6.67499" width="175" height="26" fill="black">
<rect fill="white" x="4.51489" y="6.67499" width="175" height="26"/>
<path d="M5.51489 25.4981V8.76342H7.14351V25.4981H5.51489Z"/>
<path d="M11.4763 15.3485C12.0373 14.8949 12.6706 14.5321 13.3764 14.26C14.1002 13.9879 14.8964 13.8519 15.765 13.8519C16.4526 13.8519 17.0407 13.9607 17.5293 14.1784C18.036 14.3779 18.4522 14.6591 18.7779 15.0219C19.1037 15.3666 19.348 15.7748 19.5108 16.2464C19.6737 16.7181 19.7551 17.2079 19.7551 17.7158V25.4981H17.8551V17.7974C17.8551 17.2895 17.8098 16.8178 17.7193 16.3825C17.6289 15.9471 17.475 15.5661 17.2579 15.2396C17.0407 14.9131 16.7512 14.6591 16.3893 14.4777C16.0455 14.2782 15.6112 14.1784 15.0864 14.1784C14.3264 14.1784 13.5935 14.4142 12.8878 14.8859C12.182 15.3394 11.6301 15.9108 11.232 16.6002V25.4981H9.33196V14.124H11.232V15.2396C11.232 15.4754 11.3134 15.5117 11.4763 15.3485Z"/>
<path d="M30.5023 25.4981V24.7634C30.0318 25.0718 29.4708 25.3167 28.8194 25.4981C28.186 25.6795 27.5436 25.7702 26.8922 25.7702C26.0598 25.7702 25.2817 25.6251 24.5578 25.3349C23.834 25.0265 23.2097 24.6092 22.6849 24.0832C22.1782 23.5571 21.7711 22.9403 21.4635 22.2328C21.1739 21.5072 21.0292 20.7271 21.0292 19.8927C21.0292 19.1489 21.1649 18.4142 21.4363 17.6886C21.7258 16.963 22.1511 16.319 22.7121 15.7566C23.2911 15.1761 24.0059 14.7135 24.8564 14.3689C25.7069 14.0242 26.6931 13.8519 27.8151 13.8519C28.376 13.8519 28.8465 13.8881 29.2265 13.9607C29.6065 14.0333 30.0318 14.0968 30.5023 14.1512V7.67499H32.3752V25.4981H30.5023ZM27.8151 14.124C27.0369 14.124 26.3493 14.2963 25.7521 14.641C25.155 14.9675 24.6574 15.4029 24.2593 15.9471C23.8611 16.4913 23.5626 17.1172 23.3635 17.8246C23.1645 18.514 23.0649 19.2215 23.0649 19.9471C23.0649 21.6705 23.4359 23.0219 24.1778 24.0015C24.9197 24.9811 25.915 25.4709 27.1636 25.4709C27.797 25.4709 28.4122 25.3349 29.0094 25.0627C29.6246 24.7906 30.1223 24.4188 30.5023 23.9471V15.2668C30.0861 14.8315 29.6699 14.5321 29.2537 14.3689C28.8375 14.2056 28.3579 14.124 27.8151 14.124Z"/>
<path d="M35.7671 20.4097C35.6404 20.4278 35.5771 20.5185 35.5771 20.6818C35.6495 21.2804 35.7852 21.8519 35.9842 22.3961C36.1833 22.9403 36.4547 23.421 36.7985 23.8383C37.1424 24.2555 37.5676 24.5911 38.0743 24.8451C38.581 25.099 39.1781 25.226 39.8658 25.226C40.662 25.226 41.413 25.0355 42.1187 24.6546C42.8425 24.2555 43.3854 23.6931 43.7473 22.9675L44.0187 23.0219C43.7835 23.5117 43.4849 23.929 43.123 24.2736C42.7792 24.6183 42.3901 24.8995 41.9558 25.1172C41.5396 25.3349 41.0963 25.4981 40.6258 25.607C40.1553 25.7158 39.6848 25.7702 39.2143 25.7702C38.3819 25.7702 37.6128 25.616 36.9071 25.3076C36.2014 24.9993 35.5952 24.5729 35.0885 24.0287C34.5818 23.4845 34.1837 22.8496 33.8942 22.124C33.6227 21.3802 33.487 20.5911 33.487 19.7566C33.487 19.0129 33.6046 18.2872 33.8399 17.5798C34.0932 16.8723 34.4642 16.2464 34.9528 15.7022C35.4595 15.1398 36.0838 14.6954 36.8257 14.3689C37.5676 14.0242 38.4272 13.8519 39.4043 13.8519C40.4358 13.8519 41.2591 14.0333 41.8744 14.3961C42.5077 14.7407 42.8244 15.2668 42.8244 15.9743C42.8244 16.3553 42.6887 16.7362 42.4173 17.1172C42.1639 17.4981 41.7568 17.8791 41.1958 18.26C40.6348 18.6228 39.911 18.9856 39.0243 19.3485C38.1376 19.7113 37.0519 20.065 35.7671 20.4097ZM35.5228 19.8655C35.5228 20.0832 35.6404 20.1648 35.8757 20.1104C36.9614 19.8383 37.8481 19.5027 38.5357 19.1036C39.2415 18.6863 39.7753 18.26 40.1372 17.8246C40.5172 17.3711 40.7525 16.9267 40.8429 16.4913C40.9334 16.0559 40.9153 15.6659 40.7886 15.3212C40.6801 14.9584 40.472 14.6682 40.1643 14.4505C39.8748 14.2328 39.531 14.124 39.1329 14.124C38.4452 14.124 37.8662 14.3235 37.3957 14.7226C36.9433 15.1036 36.5723 15.5934 36.2828 16.192C36.0114 16.7725 35.8123 17.3983 35.6856 18.0695C35.5771 18.7226 35.5228 19.3212 35.5228 19.8655Z"/>
<path d="M47.3351 7.67499V25.4981H45.4351L45.4622 7.67499H47.3351Z"/>
<path d="M49.5431 11.1852C49.9593 11.0401 50.2579 10.8768 50.4388 10.6954C50.6198 10.4959 50.7827 10.1875 50.9274 9.77023C51.0722 10.1875 51.235 10.4959 51.416 10.6954C51.597 10.8768 51.8955 11.0401 52.3117 11.1852C51.8955 11.3122 51.597 11.4754 51.416 11.675C51.235 11.8564 51.0722 12.1557 50.9274 12.5729C50.7827 12.1557 50.6198 11.8564 50.4388 11.675C50.2579 11.4754 49.9593 11.3122 49.5431 11.1852ZM51.8774 14.124V25.4981H49.9774V14.124H51.8774Z"/>
<path d="M56.6172 14.7498C57.0696 14.4959 57.5944 14.2872 58.1915 14.124C58.8068 13.9426 59.413 13.8519 60.0101 13.8519C60.8606 13.8519 61.6388 14.0061 62.3445 14.3144C63.0683 14.6047 63.6926 15.0129 64.2174 15.5389C64.7422 16.065 65.1493 16.6909 65.4389 17.4165C65.7465 18.124 65.9003 18.8949 65.9003 19.7294C65.9003 20.4732 65.7555 21.2079 65.466 21.9335C65.1765 22.6591 64.7422 23.3122 64.1631 23.8927C63.6021 24.455 62.8964 24.9085 62.0459 25.2532C61.1954 25.5979 60.2092 25.7702 59.0873 25.7702C58.653 25.7702 58.2729 25.743 57.9472 25.6886C57.6215 25.6523 57.2958 25.607 56.9701 25.5525C56.6443 25.4981 56.2915 25.4618 55.9115 25.4437C55.5314 25.4256 55.07 25.4437 54.5271 25.4981V7.67499H56.4272V14.641C56.4272 14.768 56.4905 14.8042 56.6172 14.7498ZM56.4272 24.3553C56.8253 24.7906 57.2324 25.09 57.6486 25.2532C58.0648 25.4165 58.5444 25.4981 59.0873 25.4981C59.8835 25.4981 60.5802 25.3349 61.1773 25.0083C61.7745 24.6637 62.2721 24.2192 62.6702 23.675C63.0683 23.1308 63.3669 22.514 63.566 21.8246C63.765 21.1172 63.8645 20.4006 63.8645 19.675C63.8645 17.9516 63.4845 16.6002 62.7245 15.6206C61.9826 14.641 60.9964 14.1512 59.7658 14.1512C59.1868 14.1512 58.6077 14.2782 58.0287 14.5321C57.4496 14.768 56.961 15.0945 56.5629 15.5117C56.4724 15.6024 56.4272 15.7294 56.4272 15.8927V24.3553Z"/>
<path d="M69.1773 7.67499V25.4981H67.2772L67.3043 7.67499H69.1773Z"/>
<path d="M72.851 20.4097C72.7243 20.4278 72.661 20.5185 72.661 20.6818C72.7334 21.2804 72.8691 21.8519 73.0681 22.3961C73.2672 22.9403 73.5386 23.421 73.8824 23.8383C74.2263 24.2555 74.6515 24.5911 75.1582 24.8451C75.6649 25.099 76.262 25.226 76.9497 25.226C77.7459 25.226 78.4968 25.0355 79.2026 24.6546C79.9264 24.2555 80.4693 23.6931 80.8312 22.9675L81.1026 23.0219C80.8674 23.5117 80.5688 23.929 80.2069 24.2736C79.8631 24.6183 79.474 24.8995 79.0397 25.1172C78.6235 25.3349 78.1802 25.4981 77.7097 25.607C77.2392 25.7158 76.7687 25.7702 76.2982 25.7702C75.4658 25.7702 74.6967 25.616 73.991 25.3076C73.2853 24.9993 72.6791 24.5729 72.1724 24.0287C71.6657 23.4845 71.2676 22.8496 70.9781 22.124C70.7066 21.3802 70.5709 20.5911 70.5709 19.7566C70.5709 19.0129 70.6885 18.2872 70.9238 17.5798C71.1771 16.8723 71.5481 16.2464 72.0367 15.7022C72.5433 15.1398 73.1677 14.6954 73.9096 14.3689C74.6515 14.0242 75.511 13.8519 76.4882 13.8519C77.5197 13.8519 78.343 14.0333 78.9583 14.3961C79.5916 14.7407 79.9083 15.2668 79.9083 15.9743C79.9083 16.3553 79.7726 16.7362 79.5012 17.1172C79.2478 17.4981 78.8407 17.8791 78.2797 18.26C77.7187 18.6228 76.9949 18.9856 76.1082 19.3485C75.2215 19.7113 74.1358 20.065 72.851 20.4097ZM72.6067 19.8655C72.6067 20.0832 72.7243 20.1648 72.9595 20.1104C74.0453 19.8383 74.932 19.5027 75.6196 19.1036C76.3254 18.6863 76.8592 18.26 77.2211 17.8246C77.6011 17.3711 77.8363 16.9267 77.9268 16.4913C78.0173 16.0559 77.9992 15.6659 77.8725 15.3212C77.764 14.9584 77.5559 14.6682 77.2482 14.4505C76.9587 14.2328 76.6149 14.124 76.2168 14.124C75.5291 14.124 74.9501 14.3235 74.4796 14.7226C74.0272 15.1036 73.6562 15.5934 73.3667 16.192C73.0953 16.7725 72.8962 17.3983 72.7695 18.0695C72.661 18.7226 72.6067 19.3212 72.6067 19.8655Z"/>
<path d="M90.6837 16.8723C90.4123 16.8723 90.2765 16.9902 90.2765 17.226V25.4981H88.3765V8.76342H93.6695C95.0086 8.76342 96.1124 8.96297 96.981 9.36206C97.8677 9.76116 98.5191 10.26 98.9353 10.8587C99.3696 11.4573 99.5687 12.1104 99.5325 12.8178C99.5144 13.5072 99.2882 14.1512 98.8539 14.7498C98.4196 15.3485 97.7772 15.8564 96.9267 16.2736C96.0762 16.6727 95.0267 16.8723 93.7781 16.8723H90.6837ZM90.2765 9.36206V16.2736C90.2765 16.4913 90.4123 16.6002 90.6837 16.6002H93.9409C94.7009 16.6002 95.3433 16.4188 95.8681 16.0559C96.411 15.675 96.8272 15.2033 97.1167 14.641C97.4063 14.0786 97.5601 13.4709 97.5782 12.8178C97.5963 12.1648 97.4786 11.5571 97.2253 10.9947C96.972 10.4324 96.5739 9.96977 96.031 9.60696C95.4881 9.22601 94.7914 9.03553 93.9409 9.03553H90.6837C90.4123 9.03553 90.2765 9.14438 90.2765 9.36206Z"/>
<path d="M107.89 15.294C107.42 15.0038 106.995 14.7861 106.615 14.641C106.253 14.4777 105.873 14.3961 105.475 14.3961C104.95 14.3961 104.443 14.5231 103.955 14.777C103.466 15.0129 103.095 15.3666 102.842 15.8383V25.4981H100.942L100.969 14.124H102.842V14.7498C102.842 14.9494 102.941 14.9947 103.14 14.8859C103.683 14.5593 104.271 14.3054 104.905 14.124C105.556 13.9426 106.198 13.8519 106.832 13.8519C107.574 13.8519 108.225 13.9788 108.786 14.2328L107.89 15.294Z"/>
<path d="M114.447 25.7702C113.126 25.7702 112.022 25.48 111.135 24.8995C110.267 24.3008 109.615 23.5661 109.181 22.6954C108.747 21.8065 108.53 20.8451 108.53 19.811C108.53 18.777 108.747 17.8246 109.181 16.9539C109.615 16.065 110.267 15.3303 111.135 14.7498C112.022 14.1512 113.126 13.8519 114.447 13.8519C115.768 13.8519 116.863 14.1512 117.731 14.7498C118.618 15.3303 119.278 16.065 119.713 16.9539C120.147 17.8246 120.364 18.777 120.364 19.811C120.364 20.8451 120.138 21.8065 119.686 22.6954C119.251 23.5661 118.6 24.3008 117.731 24.8995C116.863 25.48 115.768 25.7702 114.447 25.7702ZM114.447 14.0968C113.596 14.0968 112.882 14.3779 112.303 14.9403C111.723 15.5027 111.289 16.2101 111 17.0627C110.71 17.9154 110.565 18.8315 110.565 19.811C110.583 20.7906 110.728 21.7067 111 22.5593C111.289 23.412 111.723 24.1194 112.303 24.6818C112.882 25.2442 113.596 25.5253 114.447 25.5253C115.315 25.5253 116.03 25.2442 116.591 24.6818C117.17 24.1194 117.605 23.412 117.894 22.5593C118.184 21.7067 118.328 20.7906 118.328 19.811C118.328 18.8315 118.184 17.9154 117.894 17.0627C117.605 16.2101 117.17 15.5027 116.591 14.9403C116.03 14.3779 115.315 14.0968 114.447 14.0968Z"/>
<path d="M123.351 14.124V14.8587C123.822 14.5503 124.374 14.3054 125.007 14.124C125.659 13.9426 126.31 13.8519 126.962 13.8519C127.812 13.8519 128.59 14.0061 129.296 14.3144C130.02 14.6047 130.635 15.0129 131.142 15.5389C131.666 16.065 132.074 16.6909 132.363 17.4165C132.671 18.124 132.825 18.8949 132.825 19.7294C132.825 20.4732 132.68 21.2079 132.39 21.9335C132.119 22.6591 131.694 23.3122 131.115 23.8927C130.554 24.455 129.848 24.9085 128.997 25.2532C128.147 25.5979 127.161 25.7702 126.039 25.7702C125.478 25.7702 125.007 25.7339 124.627 25.6614C124.247 25.5888 123.822 25.5253 123.351 25.4709V31.4029H121.479V14.124H123.351ZM126.039 25.4709C126.835 25.4709 127.523 25.3076 128.102 24.9811C128.699 24.6364 129.196 24.192 129.594 23.6478C129.993 23.1036 130.291 22.4868 130.49 21.7974C130.689 21.1081 130.789 20.4006 130.789 19.675C130.789 17.9516 130.418 16.6002 129.676 15.6206C128.934 14.6228 127.939 14.133 126.69 14.1512C126.057 14.1512 125.432 14.2872 124.817 14.5593C124.22 14.8315 123.731 15.2033 123.351 15.675V24.3281C123.768 24.7634 124.184 25.0627 124.6 25.226C125.016 25.3893 125.496 25.4709 126.039 25.4709Z"/>
<path d="M136.135 7.67499V15.2396C136.135 15.4754 136.216 15.5117 136.379 15.3485C136.94 14.8949 137.574 14.5321 138.279 14.26C139.003 13.9879 139.799 13.8519 140.668 13.8519C141.356 13.8519 141.944 13.9607 142.432 14.1784C142.939 14.3779 143.355 14.6591 143.681 15.0219C144.007 15.3666 144.242 15.7748 144.387 16.2464C144.55 16.7181 144.631 17.2079 144.631 17.7158V25.4981H142.758V17.7974C142.758 17.2895 142.713 16.8178 142.622 16.3825C142.532 15.9471 142.378 15.5661 142.161 15.2396C141.944 14.9131 141.654 14.6591 141.292 14.4777C140.948 14.2782 140.514 14.1784 139.989 14.1784C139.211 14.1784 138.469 14.4142 137.764 14.8859C137.076 15.3394 136.533 15.9108 136.135 16.6002V25.4981H134.235V7.67499H136.135Z"/>
<path d="M148.159 20.4097C148.032 20.4278 147.969 20.5185 147.969 20.6818C148.041 21.2804 148.177 21.8519 148.376 22.3961C148.575 22.9403 148.846 23.421 149.19 23.8383C149.534 24.2555 149.959 24.5911 150.466 24.8451C150.972 25.099 151.57 25.226 152.257 25.226C153.053 25.226 153.804 25.0355 154.51 24.6546C155.234 24.2555 155.777 23.6931 156.139 22.9675L156.41 23.0219C156.175 23.5117 155.876 23.929 155.515 24.2736C155.171 24.6183 154.782 24.8995 154.347 25.1172C153.931 25.3349 153.488 25.4981 153.017 25.607C152.547 25.7158 152.076 25.7702 151.606 25.7702C150.773 25.7702 150.004 25.616 149.299 25.3076C148.593 24.9993 147.987 24.5729 147.48 24.0287C146.973 23.4845 146.575 22.8496 146.286 22.124C146.014 21.3802 145.879 20.5911 145.879 19.7566C145.879 19.0129 145.996 18.2872 146.231 17.5798C146.485 16.8723 146.856 16.2464 147.344 15.7022C147.851 15.1398 148.475 14.6954 149.217 14.3689C149.959 14.0242 150.819 13.8519 151.796 13.8519C152.827 13.8519 153.651 14.0333 154.266 14.3961C154.899 14.7407 155.216 15.2668 155.216 15.9743C155.216 16.3553 155.08 16.7362 154.809 17.1172C154.555 17.4981 154.148 17.8791 153.587 18.26C153.026 18.6228 152.303 18.9856 151.416 19.3485C150.529 19.7113 149.443 20.065 148.159 20.4097ZM147.914 19.8655C147.914 20.0832 148.032 20.1648 148.267 20.1104C149.353 19.8383 150.24 19.5027 150.927 19.1036C151.633 18.6863 152.167 18.26 152.529 17.8246C152.909 17.3711 153.144 16.9267 153.234 16.4913C153.325 16.0559 153.307 15.6659 153.18 15.3212C153.072 14.9584 152.863 14.6682 152.556 14.4505C152.266 14.2328 151.922 14.124 151.524 14.124C150.837 14.124 150.258 14.3235 149.787 14.7226C149.335 15.1036 148.964 15.5934 148.674 16.192C148.403 16.7725 148.204 17.3983 148.077 18.0695C147.969 18.7226 147.914 19.3212 147.914 19.8655Z"/>
<path d="M165.725 15.9471C165.345 15.4392 164.875 15.0129 164.314 14.6682C163.771 14.3054 163.21 14.124 162.631 14.124C161.961 14.124 161.391 14.3144 160.921 14.6954C160.469 15.0763 160.098 15.548 159.808 16.1104C159.537 16.6727 159.338 17.2804 159.211 17.9335C159.084 18.5684 159.021 19.158 159.021 19.7022C159.021 20.3734 159.102 21.0446 159.265 21.7158C159.428 22.3689 159.681 22.9584 160.025 23.4845C160.369 24.0106 160.812 24.4369 161.355 24.7634C161.916 25.0718 162.586 25.226 163.364 25.226C164.16 25.226 164.911 25.0355 165.617 24.6546C166.341 24.2555 166.883 23.6931 167.245 22.9675L167.517 23.0219C167.282 23.5117 166.983 23.929 166.621 24.2736C166.277 24.6183 165.888 24.9085 165.454 25.1444C165.038 25.3621 164.594 25.5253 164.124 25.6342C163.653 25.743 163.183 25.7974 162.712 25.7974C161.88 25.7974 161.111 25.6432 160.405 25.3349C159.699 25.0083 159.093 24.5729 158.587 24.0287C158.08 23.4845 157.682 22.8496 157.392 22.124C157.121 21.3802 156.985 20.5911 156.985 19.7566C156.985 19.0129 157.103 18.2872 157.338 17.5798C157.591 16.8723 157.962 16.2464 158.451 15.7022C158.958 15.1398 159.582 14.6954 160.324 14.3689C161.066 14.0242 161.925 13.8519 162.902 13.8519C163.572 13.8519 164.223 13.9426 164.857 14.124C165.49 14.2872 166.042 14.5231 166.513 14.8315L165.725 15.9471Z"/>
<path d="M167.82 14.124H169.965L174.308 23.811L174.443 23.4573C174.841 22.4959 175.167 21.6342 175.421 20.8723C175.692 20.1104 175.918 19.4119 176.099 18.777C176.298 18.124 176.461 17.5072 176.588 16.9267C176.732 16.328 176.868 15.7113 176.995 15.0763L177.158 14.124H178.515L173.9 25.4981C173.593 26.26 173.249 27.0038 172.869 27.7294C172.507 28.4732 172.091 29.1353 171.62 29.7158C171.168 30.2963 170.652 30.768 170.073 31.1308C169.512 31.4936 168.879 31.675 168.173 31.675C167.594 31.675 167.042 31.5752 166.517 31.3757C165.975 31.1943 165.468 30.9403 164.997 30.6138L165.947 29.6614C166.526 30.1693 167.06 30.514 167.549 30.6954C168.037 30.8768 168.49 30.9675 168.906 30.9675C169.503 30.9675 170.028 30.7952 170.48 30.4505C170.951 30.1058 171.358 29.6795 171.702 29.1716C172.064 28.6818 172.362 28.1466 172.598 27.5661C172.851 27.0038 173.05 26.4868 173.195 26.0151L167.82 14.124Z"/>
</mask>
<path d="M5.51489 25.4981V8.76342H7.14351V25.4981H5.51489Z" fill="#033B4A"/>
<path d="M11.4763 15.3485C12.0373 14.8949 12.6706 14.5321 13.3764 14.26C14.1002 13.9879 14.8964 13.8519 15.765 13.8519C16.4526 13.8519 17.0407 13.9607 17.5293 14.1784C18.036 14.3779 18.4522 14.6591 18.7779 15.0219C19.1037 15.3666 19.348 15.7748 19.5108 16.2464C19.6737 16.7181 19.7551 17.2079 19.7551 17.7158V25.4981H17.8551V17.7974C17.8551 17.2895 17.8098 16.8178 17.7193 16.3825C17.6289 15.9471 17.475 15.5661 17.2579 15.2396C17.0407 14.9131 16.7512 14.6591 16.3893 14.4777C16.0455 14.2782 15.6112 14.1784 15.0864 14.1784C14.3264 14.1784 13.5935 14.4142 12.8878 14.8859C12.182 15.3394 11.6301 15.9108 11.232 16.6002V25.4981H9.33196V14.124H11.232V15.2396C11.232 15.4754 11.3134 15.5117 11.4763 15.3485Z" fill="#033B4A"/>
<path d="M30.5023 25.4981V24.7634C30.0318 25.0718 29.4708 25.3167 28.8194 25.4981C28.186 25.6795 27.5436 25.7702 26.8922 25.7702C26.0598 25.7702 25.2817 25.6251 24.5578 25.3349C23.834 25.0265 23.2097 24.6092 22.6849 24.0832C22.1782 23.5571 21.7711 22.9403 21.4635 22.2328C21.1739 21.5072 21.0292 20.7271 21.0292 19.8927C21.0292 19.1489 21.1649 18.4142 21.4363 17.6886C21.7258 16.963 22.1511 16.319 22.7121 15.7566C23.2911 15.1761 24.0059 14.7135 24.8564 14.3689C25.7069 14.0242 26.6931 13.8519 27.8151 13.8519C28.376 13.8519 28.8465 13.8881 29.2265 13.9607C29.6065 14.0333 30.0318 14.0968 30.5023 14.1512V7.67499H32.3752V25.4981H30.5023ZM27.8151 14.124C27.0369 14.124 26.3493 14.2963 25.7521 14.641C25.155 14.9675 24.6574 15.4029 24.2593 15.9471C23.8611 16.4913 23.5626 17.1172 23.3635 17.8246C23.1645 18.514 23.0649 19.2215 23.0649 19.9471C23.0649 21.6705 23.4359 23.0219 24.1778 24.0015C24.9197 24.9811 25.915 25.4709 27.1636 25.4709C27.797 25.4709 28.4122 25.3349 29.0094 25.0627C29.6246 24.7906 30.1223 24.4188 30.5023 23.9471V15.2668C30.0861 14.8315 29.6699 14.5321 29.2537 14.3689C28.8375 14.2056 28.3579 14.124 27.8151 14.124Z" fill="#033B4A"/>
<path d="M35.7671 20.4097C35.6404 20.4278 35.5771 20.5185 35.5771 20.6818C35.6495 21.2804 35.7852 21.8519 35.9842 22.3961C36.1833 22.9403 36.4547 23.421 36.7985 23.8383C37.1424 24.2555 37.5676 24.5911 38.0743 24.8451C38.581 25.099 39.1781 25.226 39.8658 25.226C40.662 25.226 41.413 25.0355 42.1187 24.6546C42.8425 24.2555 43.3854 23.6931 43.7473 22.9675L44.0187 23.0219C43.7835 23.5117 43.4849 23.929 43.123 24.2736C42.7792 24.6183 42.3901 24.8995 41.9558 25.1172C41.5396 25.3349 41.0963 25.4981 40.6258 25.607C40.1553 25.7158 39.6848 25.7702 39.2143 25.7702C38.3819 25.7702 37.6128 25.616 36.9071 25.3076C36.2014 24.9993 35.5952 24.5729 35.0885 24.0287C34.5818 23.4845 34.1837 22.8496 33.8942 22.124C33.6227 21.3802 33.487 20.5911 33.487 19.7566C33.487 19.0129 33.6046 18.2872 33.8399 17.5798C34.0932 16.8723 34.4642 16.2464 34.9528 15.7022C35.4595 15.1398 36.0838 14.6954 36.8257 14.3689C37.5676 14.0242 38.4272 13.8519 39.4043 13.8519C40.4358 13.8519 41.2591 14.0333 41.8744 14.3961C42.5077 14.7407 42.8244 15.2668 42.8244 15.9743C42.8244 16.3553 42.6887 16.7362 42.4173 17.1172C42.1639 17.4981 41.7568 17.8791 41.1958 18.26C40.6348 18.6228 39.911 18.9856 39.0243 19.3485C38.1376 19.7113 37.0519 20.065 35.7671 20.4097ZM35.5228 19.8655C35.5228 20.0832 35.6404 20.1648 35.8757 20.1104C36.9614 19.8383 37.8481 19.5027 38.5357 19.1036C39.2415 18.6863 39.7753 18.26 40.1372 17.8246C40.5172 17.3711 40.7525 16.9267 40.8429 16.4913C40.9334 16.0559 40.9153 15.6659 40.7886 15.3212C40.6801 14.9584 40.472 14.6682 40.1643 14.4505C39.8748 14.2328 39.531 14.124 39.1329 14.124C38.4452 14.124 37.8662 14.3235 37.3957 14.7226C36.9433 15.1036 36.5723 15.5934 36.2828 16.192C36.0114 16.7725 35.8123 17.3983 35.6856 18.0695C35.5771 18.7226 35.5228 19.3212 35.5228 19.8655Z" fill="#033B4A"/>
<path d="M47.3351 7.67499V25.4981H45.4351L45.4622 7.67499H47.3351Z" fill="#033B4A"/>
<path d="M49.5431 11.1852C49.9593 11.0401 50.2579 10.8768 50.4388 10.6954C50.6198 10.4959 50.7827 10.1875 50.9274 9.77023C51.0722 10.1875 51.235 10.4959 51.416 10.6954C51.597 10.8768 51.8955 11.0401 52.3117 11.1852C51.8955 11.3122 51.597 11.4754 51.416 11.675C51.235 11.8564 51.0722 12.1557 50.9274 12.5729C50.7827 12.1557 50.6198 11.8564 50.4388 11.675C50.2579 11.4754 49.9593 11.3122 49.5431 11.1852ZM51.8774 14.124V25.4981H49.9774V14.124H51.8774Z" fill="#033B4A"/>
<path d="M56.6172 14.7498C57.0696 14.4959 57.5944 14.2872 58.1915 14.124C58.8068 13.9426 59.413 13.8519 60.0101 13.8519C60.8606 13.8519 61.6388 14.0061 62.3445 14.3144C63.0683 14.6047 63.6926 15.0129 64.2174 15.5389C64.7422 16.065 65.1493 16.6909 65.4389 17.4165C65.7465 18.124 65.9003 18.8949 65.9003 19.7294C65.9003 20.4732 65.7555 21.2079 65.466 21.9335C65.1765 22.6591 64.7422 23.3122 64.1631 23.8927C63.6021 24.455 62.8964 24.9085 62.0459 25.2532C61.1954 25.5979 60.2092 25.7702 59.0873 25.7702C58.653 25.7702 58.2729 25.743 57.9472 25.6886C57.6215 25.6523 57.2958 25.607 56.9701 25.5525C56.6443 25.4981 56.2915 25.4618 55.9115 25.4437C55.5314 25.4256 55.07 25.4437 54.5271 25.4981V7.67499H56.4272V14.641C56.4272 14.768 56.4905 14.8042 56.6172 14.7498ZM56.4272 24.3553C56.8253 24.7906 57.2324 25.09 57.6486 25.2532C58.0648 25.4165 58.5444 25.4981 59.0873 25.4981C59.8835 25.4981 60.5802 25.3349 61.1773 25.0083C61.7745 24.6637 62.2721 24.2192 62.6702 23.675C63.0683 23.1308 63.3669 22.514 63.566 21.8246C63.765 21.1172 63.8645 20.4006 63.8645 19.675C63.8645 17.9516 63.4845 16.6002 62.7245 15.6206C61.9826 14.641 60.9964 14.1512 59.7658 14.1512C59.1868 14.1512 58.6077 14.2782 58.0287 14.5321C57.4496 14.768 56.961 15.0945 56.5629 15.5117C56.4724 15.6024 56.4272 15.7294 56.4272 15.8927V24.3553Z" fill="#033B4A"/>
<path d="M69.1773 7.67499V25.4981H67.2772L67.3043 7.67499H69.1773Z" fill="#033B4A"/>
<path d="M72.851 20.4097C72.7243 20.4278 72.661 20.5185 72.661 20.6818C72.7334 21.2804 72.8691 21.8519 73.0681 22.3961C73.2672 22.9403 73.5386 23.421 73.8824 23.8383C74.2263 24.2555 74.6515 24.5911 75.1582 24.8451C75.6649 25.099 76.262 25.226 76.9497 25.226C77.7459 25.226 78.4968 25.0355 79.2026 24.6546C79.9264 24.2555 80.4693 23.6931 80.8312 22.9675L81.1026 23.0219C80.8674 23.5117 80.5688 23.929 80.2069 24.2736C79.8631 24.6183 79.474 24.8995 79.0397 25.1172C78.6235 25.3349 78.1802 25.4981 77.7097 25.607C77.2392 25.7158 76.7687 25.7702 76.2982 25.7702C75.4658 25.7702 74.6967 25.616 73.991 25.3076C73.2853 24.9993 72.6791 24.5729 72.1724 24.0287C71.6657 23.4845 71.2676 22.8496 70.9781 22.124C70.7066 21.3802 70.5709 20.5911 70.5709 19.7566C70.5709 19.0129 70.6885 18.2872 70.9238 17.5798C71.1771 16.8723 71.5481 16.2464 72.0367 15.7022C72.5433 15.1398 73.1677 14.6954 73.9096 14.3689C74.6515 14.0242 75.511 13.8519 76.4882 13.8519C77.5197 13.8519 78.343 14.0333 78.9583 14.3961C79.5916 14.7407 79.9083 15.2668 79.9083 15.9743C79.9083 16.3553 79.7726 16.7362 79.5012 17.1172C79.2478 17.4981 78.8407 17.8791 78.2797 18.26C77.7187 18.6228 76.9949 18.9856 76.1082 19.3485C75.2215 19.7113 74.1358 20.065 72.851 20.4097ZM72.6067 19.8655C72.6067 20.0832 72.7243 20.1648 72.9595 20.1104C74.0453 19.8383 74.932 19.5027 75.6196 19.1036C76.3254 18.6863 76.8592 18.26 77.2211 17.8246C77.6011 17.3711 77.8363 16.9267 77.9268 16.4913C78.0173 16.0559 77.9992 15.6659 77.8725 15.3212C77.764 14.9584 77.5559 14.6682 77.2482 14.4505C76.9587 14.2328 76.6149 14.124 76.2168 14.124C75.5291 14.124 74.9501 14.3235 74.4796 14.7226C74.0272 15.1036 73.6562 15.5934 73.3667 16.192C73.0953 16.7725 72.8962 17.3983 72.7695 18.0695C72.661 18.7226 72.6067 19.3212 72.6067 19.8655Z" fill="#033B4A"/>
<path d="M90.6837 16.8723C90.4123 16.8723 90.2765 16.9902 90.2765 17.226V25.4981H88.3765V8.76342H93.6695C95.0086 8.76342 96.1124 8.96297 96.981 9.36206C97.8677 9.76116 98.5191 10.26 98.9353 10.8587C99.3696 11.4573 99.5687 12.1104 99.5325 12.8178C99.5144 13.5072 99.2882 14.1512 98.8539 14.7498C98.4196 15.3485 97.7772 15.8564 96.9267 16.2736C96.0762 16.6727 95.0267 16.8723 93.7781 16.8723H90.6837ZM90.2765 9.36206V16.2736C90.2765 16.4913 90.4123 16.6002 90.6837 16.6002H93.9409C94.7009 16.6002 95.3433 16.4188 95.8681 16.0559C96.411 15.675 96.8272 15.2033 97.1167 14.641C97.4063 14.0786 97.5601 13.4709 97.5782 12.8178C97.5963 12.1648 97.4786 11.5571 97.2253 10.9947C96.972 10.4324 96.5739 9.96977 96.031 9.60696C95.4881 9.22601 94.7914 9.03553 93.9409 9.03553H90.6837C90.4123 9.03553 90.2765 9.14438 90.2765 9.36206Z" fill="#033B4A"/>
<path d="M107.89 15.294C107.42 15.0038 106.995 14.7861 106.615 14.641C106.253 14.4777 105.873 14.3961 105.475 14.3961C104.95 14.3961 104.443 14.5231 103.955 14.777C103.466 15.0129 103.095 15.3666 102.842 15.8383V25.4981H100.942L100.969 14.124H102.842V14.7498C102.842 14.9494 102.941 14.9947 103.14 14.8859C103.683 14.5593 104.271 14.3054 104.905 14.124C105.556 13.9426 106.198 13.8519 106.832 13.8519C107.574 13.8519 108.225 13.9788 108.786 14.2328L107.89 15.294Z" fill="#033B4A"/>
<path d="M114.447 25.7702C113.126 25.7702 112.022 25.48 111.135 24.8995C110.267 24.3008 109.615 23.5661 109.181 22.6954C108.747 21.8065 108.53 20.8451 108.53 19.811C108.53 18.777 108.747 17.8246 109.181 16.9539C109.615 16.065 110.267 15.3303 111.135 14.7498C112.022 14.1512 113.126 13.8519 114.447 13.8519C115.768 13.8519 116.863 14.1512 117.731 14.7498C118.618 15.3303 119.278 16.065 119.713 16.9539C120.147 17.8246 120.364 18.777 120.364 19.811C120.364 20.8451 120.138 21.8065 119.686 22.6954C119.251 23.5661 118.6 24.3008 117.731 24.8995C116.863 25.48 115.768 25.7702 114.447 25.7702ZM114.447 14.0968C113.596 14.0968 112.882 14.3779 112.303 14.9403C111.723 15.5027 111.289 16.2101 111 17.0627C110.71 17.9154 110.565 18.8315 110.565 19.811C110.583 20.7906 110.728 21.7067 111 22.5593C111.289 23.412 111.723 24.1194 112.303 24.6818C112.882 25.2442 113.596 25.5253 114.447 25.5253C115.315 25.5253 116.03 25.2442 116.591 24.6818C117.17 24.1194 117.605 23.412 117.894 22.5593C118.184 21.7067 118.328 20.7906 118.328 19.811C118.328 18.8315 118.184 17.9154 117.894 17.0627C117.605 16.2101 117.17 15.5027 116.591 14.9403C116.03 14.3779 115.315 14.0968 114.447 14.0968Z" fill="#033B4A"/>
<path d="M123.351 14.124V14.8587C123.822 14.5503 124.374 14.3054 125.007 14.124C125.659 13.9426 126.31 13.8519 126.962 13.8519C127.812 13.8519 128.59 14.0061 129.296 14.3144C130.02 14.6047 130.635 15.0129 131.142 15.5389C131.666 16.065 132.074 16.6909 132.363 17.4165C132.671 18.124 132.825 18.8949 132.825 19.7294C132.825 20.4732 132.68 21.2079 132.39 21.9335C132.119 22.6591 131.694 23.3122 131.115 23.8927C130.554 24.455 129.848 24.9085 128.997 25.2532C128.147 25.5979 127.161 25.7702 126.039 25.7702C125.478 25.7702 125.007 25.7339 124.627 25.6614C124.247 25.5888 123.822 25.5253 123.351 25.4709V31.4029H121.479V14.124H123.351ZM126.039 25.4709C126.835 25.4709 127.523 25.3076 128.102 24.9811C128.699 24.6364 129.196 24.192 129.594 23.6478C129.993 23.1036 130.291 22.4868 130.49 21.7974C130.689 21.1081 130.789 20.4006 130.789 19.675C130.789 17.9516 130.418 16.6002 129.676 15.6206C128.934 14.6228 127.939 14.133 126.69 14.1512C126.057 14.1512 125.432 14.2872 124.817 14.5593C124.22 14.8315 123.731 15.2033 123.351 15.675V24.3281C123.768 24.7634 124.184 25.0627 124.6 25.226C125.016 25.3893 125.496 25.4709 126.039 25.4709Z" fill="#033B4A"/>
<path d="M136.135 7.67499V15.2396C136.135 15.4754 136.216 15.5117 136.379 15.3485C136.94 14.8949 137.574 14.5321 138.279 14.26C139.003 13.9879 139.799 13.8519 140.668 13.8519C141.356 13.8519 141.944 13.9607 142.432 14.1784C142.939 14.3779 143.355 14.6591 143.681 15.0219C144.007 15.3666 144.242 15.7748 144.387 16.2464C144.55 16.7181 144.631 17.2079 144.631 17.7158V25.4981H142.758V17.7974C142.758 17.2895 142.713 16.8178 142.622 16.3825C142.532 15.9471 142.378 15.5661 142.161 15.2396C141.944 14.9131 141.654 14.6591 141.292 14.4777C140.948 14.2782 140.514 14.1784 139.989 14.1784C139.211 14.1784 138.469 14.4142 137.764 14.8859C137.076 15.3394 136.533 15.9108 136.135 16.6002V25.4981H134.235V7.67499H136.135Z" fill="#033B4A"/>
<path d="M148.159 20.4097C148.032 20.4278 147.969 20.5185 147.969 20.6818C148.041 21.2804 148.177 21.8519 148.376 22.3961C148.575 22.9403 148.846 23.421 149.19 23.8383C149.534 24.2555 149.959 24.5911 150.466 24.8451C150.972 25.099 151.57 25.226 152.257 25.226C153.053 25.226 153.804 25.0355 154.51 24.6546C155.234 24.2555 155.777 23.6931 156.139 22.9675L156.41 23.0219C156.175 23.5117 155.876 23.929 155.515 24.2736C155.171 24.6183 154.782 24.8995 154.347 25.1172C153.931 25.3349 153.488 25.4981 153.017 25.607C152.547 25.7158 152.076 25.7702 151.606 25.7702C150.773 25.7702 150.004 25.616 149.299 25.3076C148.593 24.9993 147.987 24.5729 147.48 24.0287C146.973 23.4845 146.575 22.8496 146.286 22.124C146.014 21.3802 145.879 20.5911 145.879 19.7566C145.879 19.0129 145.996 18.2872 146.231 17.5798C146.485 16.8723 146.856 16.2464 147.344 15.7022C147.851 15.1398 148.475 14.6954 149.217 14.3689C149.959 14.0242 150.819 13.8519 151.796 13.8519C152.827 13.8519 153.651 14.0333 154.266 14.3961C154.899 14.7407 155.216 15.2668 155.216 15.9743C155.216 16.3553 155.08 16.7362 154.809 17.1172C154.555 17.4981 154.148 17.8791 153.587 18.26C153.026 18.6228 152.303 18.9856 151.416 19.3485C150.529 19.7113 149.443 20.065 148.159 20.4097ZM147.914 19.8655C147.914 20.0832 148.032 20.1648 148.267 20.1104C149.353 19.8383 150.24 19.5027 150.927 19.1036C151.633 18.6863 152.167 18.26 152.529 17.8246C152.909 17.3711 153.144 16.9267 153.234 16.4913C153.325 16.0559 153.307 15.6659 153.18 15.3212C153.072 14.9584 152.863 14.6682 152.556 14.4505C152.266 14.2328 151.922 14.124 151.524 14.124C150.837 14.124 150.258 14.3235 149.787 14.7226C149.335 15.1036 148.964 15.5934 148.674 16.192C148.403 16.7725 148.204 17.3983 148.077 18.0695C147.969 18.7226 147.914 19.3212 147.914 19.8655Z" fill="#033B4A"/>
<path d="M165.725 15.9471C165.345 15.4392 164.875 15.0129 164.314 14.6682C163.771 14.3054 163.21 14.124 162.631 14.124C161.961 14.124 161.391 14.3144 160.921 14.6954C160.469 15.0763 160.098 15.548 159.808 16.1104C159.537 16.6727 159.338 17.2804 159.211 17.9335C159.084 18.5684 159.021 19.158 159.021 19.7022C159.021 20.3734 159.102 21.0446 159.265 21.7158C159.428 22.3689 159.681 22.9584 160.025 23.4845C160.369 24.0106 160.812 24.4369 161.355 24.7634C161.916 25.0718 162.586 25.226 163.364 25.226C164.16 25.226 164.911 25.0355 165.617 24.6546C166.341 24.2555 166.883 23.6931 167.245 22.9675L167.517 23.0219C167.282 23.5117 166.983 23.929 166.621 24.2736C166.277 24.6183 165.888 24.9085 165.454 25.1444C165.038 25.3621 164.594 25.5253 164.124 25.6342C163.653 25.743 163.183 25.7974 162.712 25.7974C161.88 25.7974 161.111 25.6432 160.405 25.3349C159.699 25.0083 159.093 24.5729 158.587 24.0287C158.08 23.4845 157.682 22.8496 157.392 22.124C157.121 21.3802 156.985 20.5911 156.985 19.7566C156.985 19.0129 157.103 18.2872 157.338 17.5798C157.591 16.8723 157.962 16.2464 158.451 15.7022C158.958 15.1398 159.582 14.6954 160.324 14.3689C161.066 14.0242 161.925 13.8519 162.902 13.8519C163.572 13.8519 164.223 13.9426 164.857 14.124C165.49 14.2872 166.042 14.5231 166.513 14.8315L165.725 15.9471Z" fill="#033B4A"/>
<path d="M167.82 14.124H169.965L174.308 23.811L174.443 23.4573C174.841 22.4959 175.167 21.6342 175.421 20.8723C175.692 20.1104 175.918 19.4119 176.099 18.777C176.298 18.124 176.461 17.5072 176.588 16.9267C176.732 16.328 176.868 15.7113 176.995 15.0763L177.158 14.124H178.515L173.9 25.4981C173.593 26.26 173.249 27.0038 172.869 27.7294C172.507 28.4732 172.091 29.1353 171.62 29.7158C171.168 30.2963 170.652 30.768 170.073 31.1308C169.512 31.4936 168.879 31.675 168.173 31.675C167.594 31.675 167.042 31.5752 166.517 31.3757C165.975 31.1943 165.468 30.9403 164.997 30.6138L165.947 29.6614C166.526 30.1693 167.06 30.514 167.549 30.6954C168.037 30.8768 168.49 30.9675 168.906 30.9675C169.503 30.9675 170.028 30.7952 170.48 30.4505C170.951 30.1058 171.358 29.6795 171.702 29.1716C172.064 28.6818 172.362 28.1466 172.598 27.5661C172.851 27.0038 173.05 26.4868 173.195 26.0151L167.82 14.124Z" fill="#033B4A"/>
<path d="M5.51489 25.4981V8.76342H7.14351V25.4981H5.51489Z" stroke="#033B4A" mask="url(#path-1-outside-1_1283_40)"/>
<path d="M11.4763 15.3485C12.0373 14.8949 12.6706 14.5321 13.3764 14.26C14.1002 13.9879 14.8964 13.8519 15.765 13.8519C16.4526 13.8519 17.0407 13.9607 17.5293 14.1784C18.036 14.3779 18.4522 14.6591 18.7779 15.0219C19.1037 15.3666 19.348 15.7748 19.5108 16.2464C19.6737 16.7181 19.7551 17.2079 19.7551 17.7158V25.4981H17.8551V17.7974C17.8551 17.2895 17.8098 16.8178 17.7193 16.3825C17.6289 15.9471 17.475 15.5661 17.2579 15.2396C17.0407 14.9131 16.7512 14.6591 16.3893 14.4777C16.0455 14.2782 15.6112 14.1784 15.0864 14.1784C14.3264 14.1784 13.5935 14.4142 12.8878 14.8859C12.182 15.3394 11.6301 15.9108 11.232 16.6002V25.4981H9.33196V14.124H11.232V15.2396C11.232 15.4754 11.3134 15.5117 11.4763 15.3485Z" stroke="#033B4A" mask="url(#path-1-outside-1_1283_40)"/>
<path d="M30.5023 25.4981V24.7634C30.0318 25.0718 29.4708 25.3167 28.8194 25.4981C28.186 25.6795 27.5436 25.7702 26.8922 25.7702C26.0598 25.7702 25.2817 25.6251 24.5578 25.3349C23.834 25.0265 23.2097 24.6092 22.6849 24.0832C22.1782 23.5571 21.7711 22.9403 21.4635 22.2328C21.1739 21.5072 21.0292 20.7271 21.0292 19.8927C21.0292 19.1489 21.1649 18.4142 21.4363 17.6886C21.7258 16.963 22.1511 16.319 22.7121 15.7566C23.2911 15.1761 24.0059 14.7135 24.8564 14.3689C25.7069 14.0242 26.6931 13.8519 27.8151 13.8519C28.376 13.8519 28.8465 13.8881 29.2265 13.9607C29.6065 14.0333 30.0318 14.0968 30.5023 14.1512V7.67499H32.3752V25.4981H30.5023ZM27.8151 14.124C27.0369 14.124 26.3493 14.2963 25.7521 14.641C25.155 14.9675 24.6574 15.4029 24.2593 15.9471C23.8611 16.4913 23.5626 17.1172 23.3635 17.8246C23.1645 18.514 23.0649 19.2215 23.0649 19.9471C23.0649 21.6705 23.4359 23.0219 24.1778 24.0015C24.9197 24.9811 25.915 25.4709 27.1636 25.4709C27.797 25.4709 28.4122 25.3349 29.0094 25.0627C29.6246 24.7906 30.1223 24.4188 30.5023 23.9471V15.2668C30.0861 14.8315 29.6699 14.5321 29.2537 14.3689C28.8375 14.2056 28.3579 14.124 27.8151 14.124Z" stroke="#033B4A" mask="url(#path-1-outside-1_1283_40)"/>
<path d="M35.7671 20.4097C35.6404 20.4278 35.5771 20.5185 35.5771 20.6818C35.6495 21.2804 35.7852 21.8519 35.9842 22.3961C36.1833 22.9403 36.4547 23.421 36.7985 23.8383C37.1424 24.2555 37.5676 24.5911 38.0743 24.8451C38.581 25.099 39.1781 25.226 39.8658 25.226C40.662 25.226 41.413 25.0355 42.1187 24.6546C42.8425 24.2555 43.3854 23.6931 43.7473 22.9675L44.0187 23.0219C43.7835 23.5117 43.4849 23.929 43.123 24.2736C42.7792 24.6183 42.3901 24.8995 41.9558 25.1172C41.5396 25.3349 41.0963 25.4981 40.6258 25.607C40.1553 25.7158 39.6848 25.7702 39.2143 25.7702C38.3819 25.7702 37.6128 25.616 36.9071 25.3076C36.2014 24.9993 35.5952 24.5729 35.0885 24.0287C34.5818 23.4845 34.1837 22.8496 33.8942 22.124C33.6227 21.3802 33.487 20.5911 33.487 19.7566C33.487 19.0129 33.6046 18.2872 33.8399 17.5798C34.0932 16.8723 34.4642 16.2464 34.9528 15.7022C35.4595 15.1398 36.0838 14.6954 36.8257 14.3689C37.5676 14.0242 38.4272 13.8519 39.4043 13.8519C40.4358 13.8519 41.2591 14.0333 41.8744 14.3961C42.5077 14.7407 42.8244 15.2668 42.8244 15.9743C42.8244 16.3553 42.6887 16.7362 42.4173 17.1172C42.1639 17.4981 41.7568 17.8791 41.1958 18.26C40.6348 18.6228 39.911 18.9856 39.0243 19.3485C38.1376 19.7113 37.0519 20.065 35.7671 20.4097ZM35.5228 19.8655C35.5228 20.0832 35.6404 20.1648 35.8757 20.1104C36.9614 19.8383 37.8481 19.5027 38.5357 19.1036C39.2415 18.6863 39.7753 18.26 40.1372 17.8246C40.5172 17.3711 40.7525 16.9267 40.8429 16.4913C40.9334 16.0559 40.9153 15.6659 40.7886 15.3212C40.6801 14.9584 40.472 14.6682 40.1643 14.4505C39.8748 14.2328 39.531 14.124 39.1329 14.124C38.4452 14.124 37.8662 14.3235 37.3957 14.7226C36.9433 15.1036 36.5723 15.5934 36.2828 16.192C36.0114 16.7725 35.8123 17.3983 35.6856 18.0695C35.5771 18.7226 35.5228 19.3212 35.5228 19.8655Z" stroke="#033B4A" mask="url(#path-1-outside-1_1283_40)"/>
<path d="M47.3351 7.67499V25.4981H45.4351L45.4622 7.67499H47.3351Z" stroke="#033B4A" mask="url(#path-1-outside-1_1283_40)"/>
<path d="M49.5431 11.1852C49.9593 11.0401 50.2579 10.8768 50.4388 10.6954C50.6198 10.4959 50.7827 10.1875 50.9274 9.77023C51.0722 10.1875 51.235 10.4959 51.416 10.6954C51.597 10.8768 51.8955 11.0401 52.3117 11.1852C51.8955 11.3122 51.597 11.4754 51.416 11.675C51.235 11.8564 51.0722 12.1557 50.9274 12.5729C50.7827 12.1557 50.6198 11.8564 50.4388 11.675C50.2579 11.4754 49.9593 11.3122 49.5431 11.1852ZM51.8774 14.124V25.4981H49.9774V14.124H51.8774Z" stroke="#033B4A" mask="url(#path-1-outside-1_1283_40)"/>
<path d="M56.6172 14.7498C57.0696 14.4959 57.5944 14.2872 58.1915 14.124C58.8068 13.9426 59.413 13.8519 60.0101 13.8519C60.8606 13.8519 61.6388 14.0061 62.3445 14.3144C63.0683 14.6047 63.6926 15.0129 64.2174 15.5389C64.7422 16.065 65.1493 16.6909 65.4389 17.4165C65.7465 18.124 65.9003 18.8949 65.9003 19.7294C65.9003 20.4732 65.7555 21.2079 65.466 21.9335C65.1765 22.6591 64.7422 23.3122 64.1631 23.8927C63.6021 24.455 62.8964 24.9085 62.0459 25.2532C61.1954 25.5979 60.2092 25.7702 59.0873 25.7702C58.653 25.7702 58.2729 25.743 57.9472 25.6886C57.6215 25.6523 57.2958 25.607 56.9701 25.5525C56.6443 25.4981 56.2915 25.4618 55.9115 25.4437C55.5314 25.4256 55.07 25.4437 54.5271 25.4981V7.67499H56.4272V14.641C56.4272 14.768 56.4905 14.8042 56.6172 14.7498ZM56.4272 24.3553C56.8253 24.7906 57.2324 25.09 57.6486 25.2532C58.0648 25.4165 58.5444 25.4981 59.0873 25.4981C59.8835 25.4981 60.5802 25.3349 61.1773 25.0083C61.7745 24.6637 62.2721 24.2192 62.6702 23.675C63.0683 23.1308 63.3669 22.514 63.566 21.8246C63.765 21.1172 63.8645 20.4006 63.8645 19.675C63.8645 17.9516 63.4845 16.6002 62.7245 15.6206C61.9826 14.641 60.9964 14.1512 59.7658 14.1512C59.1868 14.1512 58.6077 14.2782 58.0287 14.5321C57.4496 14.768 56.961 15.0945 56.5629 15.5117C56.4724 15.6024 56.4272 15.7294 56.4272 15.8927V24.3553Z" stroke="#033B4A" mask="url(#path-1-outside-1_1283_40)"/>
<path d="M69.1773 7.67499V25.4981H67.2772L67.3043 7.67499H69.1773Z" stroke="#033B4A" mask="url(#path-1-outside-1_1283_40)"/>
<path d="M72.851 20.4097C72.7243 20.4278 72.661 20.5185 72.661 20.6818C72.7334 21.2804 72.8691 21.8519 73.0681 22.3961C73.2672 22.9403 73.5386 23.421 73.8824 23.8383C74.2263 24.2555 74.6515 24.5911 75.1582 24.8451C75.6649 25.099 76.262 25.226 76.9497 25.226C77.7459 25.226 78.4968 25.0355 79.2026 24.6546C79.9264 24.2555 80.4693 23.6931 80.8312 22.9675L81.1026 23.0219C80.8674 23.5117 80.5688 23.929 80.2069 24.2736C79.8631 24.6183 79.474 24.8995 79.0397 25.1172C78.6235 25.3349 78.1802 25.4981 77.7097 25.607C77.2392 25.7158 76.7687 25.7702 76.2982 25.7702C75.4658 25.7702 74.6967 25.616 73.991 25.3076C73.2853 24.9993 72.6791 24.5729 72.1724 24.0287C71.6657 23.4845 71.2676 22.8496 70.9781 22.124C70.7066 21.3802 70.5709 20.5911 70.5709 19.7566C70.5709 19.0129 70.6885 18.2872 70.9238 17.5798C71.1771 16.8723 71.5481 16.2464 72.0367 15.7022C72.5433 15.1398 73.1677 14.6954 73.9096 14.3689C74.6515 14.0242 75.511 13.8519 76.4882 13.8519C77.5197 13.8519 78.343 14.0333 78.9583 14.3961C79.5916 14.7407 79.9083 15.2668 79.9083 15.9743C79.9083 16.3553 79.7726 16.7362 79.5012 17.1172C79.2478 17.4981 78.8407 17.8791 78.2797 18.26C77.7187 18.6228 76.9949 18.9856 76.1082 19.3485C75.2215 19.7113 74.1358 20.065 72.851 20.4097ZM72.6067 19.8655C72.6067 20.0832 72.7243 20.1648 72.9595 20.1104C74.0453 19.8383 74.932 19.5027 75.6196 19.1036C76.3254 18.6863 76.8592 18.26 77.2211 17.8246C77.6011 17.3711 77.8363 16.9267 77.9268 16.4913C78.0173 16.0559 77.9992 15.6659 77.8725 15.3212C77.764 14.9584 77.5559 14.6682 77.2482 14.4505C76.9587 14.2328 76.6149 14.124 76.2168 14.124C75.5291 14.124 74.9501 14.3235 74.4796 14.7226C74.0272 15.1036 73.6562 15.5934 73.3667 16.192C73.0953 16.7725 72.8962 17.3983 72.7695 18.0695C72.661 18.7226 72.6067 19.3212 72.6067 19.8655Z" stroke="#033B4A" mask="url(#path-1-outside-1_1283_40)"/>
<path d="M90.6837 16.8723C90.4123 16.8723 90.2765 16.9902 90.2765 17.226V25.4981H88.3765V8.76342H93.6695C95.0086 8.76342 96.1124 8.96297 96.981 9.36206C97.8677 9.76116 98.5191 10.26 98.9353 10.8587C99.3696 11.4573 99.5687 12.1104 99.5325 12.8178C99.5144 13.5072 99.2882 14.1512 98.8539 14.7498C98.4196 15.3485 97.7772 15.8564 96.9267 16.2736C96.0762 16.6727 95.0267 16.8723 93.7781 16.8723H90.6837ZM90.2765 9.36206V16.2736C90.2765 16.4913 90.4123 16.6002 90.6837 16.6002H93.9409C94.7009 16.6002 95.3433 16.4188 95.8681 16.0559C96.411 15.675 96.8272 15.2033 97.1167 14.641C97.4063 14.0786 97.5601 13.4709 97.5782 12.8178C97.5963 12.1648 97.4786 11.5571 97.2253 10.9947C96.972 10.4324 96.5739 9.96977 96.031 9.60696C95.4881 9.22601 94.7914 9.03553 93.9409 9.03553H90.6837C90.4123 9.03553 90.2765 9.14438 90.2765 9.36206Z" stroke="#033B4A" mask="url(#path-1-outside-1_1283_40)"/>
<path d="M107.89 15.294C107.42 15.0038 106.995 14.7861 106.615 14.641C106.253 14.4777 105.873 14.3961 105.475 14.3961C104.95 14.3961 104.443 14.5231 103.955 14.777C103.466 15.0129 103.095 15.3666 102.842 15.8383V25.4981H100.942L100.969 14.124H102.842V14.7498C102.842 14.9494 102.941 14.9947 103.14 14.8859C103.683 14.5593 104.271 14.3054 104.905 14.124C105.556 13.9426 106.198 13.8519 106.832 13.8519C107.574 13.8519 108.225 13.9788 108.786 14.2328L107.89 15.294Z" stroke="#033B4A" mask="url(#path-1-outside-1_1283_40)"/>
<path d="M114.447 25.7702C113.126 25.7702 112.022 25.48 111.135 24.8995C110.267 24.3008 109.615 23.5661 109.181 22.6954C108.747 21.8065 108.53 20.8451 108.53 19.811C108.53 18.777 108.747 17.8246 109.181 16.9539C109.615 16.065 110.267 15.3303 111.135 14.7498C112.022 14.1512 113.126 13.8519 114.447 13.8519C115.768 13.8519 116.863 14.1512 117.731 14.7498C118.618 15.3303 119.278 16.065 119.713 16.9539C120.147 17.8246 120.364 18.777 120.364 19.811C120.364 20.8451 120.138 21.8065 119.686 22.6954C119.251 23.5661 118.6 24.3008 117.731 24.8995C116.863 25.48 115.768 25.7702 114.447 25.7702ZM114.447 14.0968C113.596 14.0968 112.882 14.3779 112.303 14.9403C111.723 15.5027 111.289 16.2101 111 17.0627C110.71 17.9154 110.565 18.8315 110.565 19.811C110.583 20.7906 110.728 21.7067 111 22.5593C111.289 23.412 111.723 24.1194 112.303 24.6818C112.882 25.2442 113.596 25.5253 114.447 25.5253C115.315 25.5253 116.03 25.2442 116.591 24.6818C117.17 24.1194 117.605 23.412 117.894 22.5593C118.184 21.7067 118.328 20.7906 118.328 19.811C118.328 18.8315 118.184 17.9154 117.894 17.0627C117.605 16.2101 117.17 15.5027 116.591 14.9403C116.03 14.3779 115.315 14.0968 114.447 14.0968Z" stroke="#033B4A" mask="url(#path-1-outside-1_1283_40)"/>
<path d="M123.351 14.124V14.8587C123.822 14.5503 124.374 14.3054 125.007 14.124C125.659 13.9426 126.31 13.8519 126.962 13.8519C127.812 13.8519 128.59 14.0061 129.296 14.3144C130.02 14.6047 130.635 15.0129 131.142 15.5389C131.666 16.065 132.074 16.6909 132.363 17.4165C132.671 18.124 132.825 18.8949 132.825 19.7294C132.825 20.4732 132.68 21.2079 132.39 21.9335C132.119 22.6591 131.694 23.3122 131.115 23.8927C130.554 24.455 129.848 24.9085 128.997 25.2532C128.147 25.5979 127.161 25.7702 126.039 25.7702C125.478 25.7702 125.007 25.7339 124.627 25.6614C124.247 25.5888 123.822 25.5253 123.351 25.4709V31.4029H121.479V14.124H123.351ZM126.039 25.4709C126.835 25.4709 127.523 25.3076 128.102 24.9811C128.699 24.6364 129.196 24.192 129.594 23.6478C129.993 23.1036 130.291 22.4868 130.49 21.7974C130.689 21.1081 130.789 20.4006 130.789 19.675C130.789 17.9516 130.418 16.6002 129.676 15.6206C128.934 14.6228 127.939 14.133 126.69 14.1512C126.057 14.1512 125.432 14.2872 124.817 14.5593C124.22 14.8315 123.731 15.2033 123.351 15.675V24.3281C123.768 24.7634 124.184 25.0627 124.6 25.226C125.016 25.3893 125.496 25.4709 126.039 25.4709Z" stroke="#033B4A" mask="url(#path-1-outside-1_1283_40)"/>
<path d="M136.135 7.67499V15.2396C136.135 15.4754 136.216 15.5117 136.379 15.3485C136.94 14.8949 137.574 14.5321 138.279 14.26C139.003 13.9879 139.799 13.8519 140.668 13.8519C141.356 13.8519 141.944 13.9607 142.432 14.1784C142.939 14.3779 143.355 14.6591 143.681 15.0219C144.007 15.3666 144.242 15.7748 144.387 16.2464C144.55 16.7181 144.631 17.2079 144.631 17.7158V25.4981H142.758V17.7974C142.758 17.2895 142.713 16.8178 142.622 16.3825C142.532 15.9471 142.378 15.5661 142.161 15.2396C141.944 14.9131 141.654 14.6591 141.292 14.4777C140.948 14.2782 140.514 14.1784 139.989 14.1784C139.211 14.1784 138.469 14.4142 137.764 14.8859C137.076 15.3394 136.533 15.9108 136.135 16.6002V25.4981H134.235V7.67499H136.135Z" stroke="#033B4A" mask="url(#path-1-outside-1_1283_40)"/>
<path d="M148.159 20.4097C148.032 20.4278 147.969 20.5185 147.969 20.6818C148.041 21.2804 148.177 21.8519 148.376 22.3961C148.575 22.9403 148.846 23.421 149.19 23.8383C149.534 24.2555 149.959 24.5911 150.466 24.8451C150.972 25.099 151.57 25.226 152.257 25.226C153.053 25.226 153.804 25.0355 154.51 24.6546C155.234 24.2555 155.777 23.6931 156.139 22.9675L156.41 23.0219C156.175 23.5117 155.876 23.929 155.515 24.2736C155.171 24.6183 154.782 24.8995 154.347 25.1172C153.931 25.3349 153.488 25.4981 153.017 25.607C152.547 25.7158 152.076 25.7702 151.606 25.7702C150.773 25.7702 150.004 25.616 149.299 25.3076C148.593 24.9993 147.987 24.5729 147.48 24.0287C146.973 23.4845 146.575 22.8496 146.286 22.124C146.014 21.3802 145.879 20.5911 145.879 19.7566C145.879 19.0129 145.996 18.2872 146.231 17.5798C146.485 16.8723 146.856 16.2464 147.344 15.7022C147.851 15.1398 148.475 14.6954 149.217 14.3689C149.959 14.0242 150.819 13.8519 151.796 13.8519C152.827 13.8519 153.651 14.0333 154.266 14.3961C154.899 14.7407 155.216 15.2668 155.216 15.9743C155.216 16.3553 155.08 16.7362 154.809 17.1172C154.555 17.4981 154.148 17.8791 153.587 18.26C153.026 18.6228 152.303 18.9856 151.416 19.3485C150.529 19.7113 149.443 20.065 148.159 20.4097ZM147.914 19.8655C147.914 20.0832 148.032 20.1648 148.267 20.1104C149.353 19.8383 150.24 19.5027 150.927 19.1036C151.633 18.6863 152.167 18.26 152.529 17.8246C152.909 17.3711 153.144 16.9267 153.234 16.4913C153.325 16.0559 153.307 15.6659 153.18 15.3212C153.072 14.9584 152.863 14.6682 152.556 14.4505C152.266 14.2328 151.922 14.124 151.524 14.124C150.837 14.124 150.258 14.3235 149.787 14.7226C149.335 15.1036 148.964 15.5934 148.674 16.192C148.403 16.7725 148.204 17.3983 148.077 18.0695C147.969 18.7226 147.914 19.3212 147.914 19.8655Z" stroke="#033B4A" mask="url(#path-1-outside-1_1283_40)"/>
<path d="M165.725 15.9471C165.345 15.4392 164.875 15.0129 164.314 14.6682C163.771 14.3054 163.21 14.124 162.631 14.124C161.961 14.124 161.391 14.3144 160.921 14.6954C160.469 15.0763 160.098 15.548 159.808 16.1104C159.537 16.6727 159.338 17.2804 159.211 17.9335C159.084 18.5684 159.021 19.158 159.021 19.7022C159.021 20.3734 159.102 21.0446 159.265 21.7158C159.428 22.3689 159.681 22.9584 160.025 23.4845C160.369 24.0106 160.812 24.4369 161.355 24.7634C161.916 25.0718 162.586 25.226 163.364 25.226C164.16 25.226 164.911 25.0355 165.617 24.6546C166.341 24.2555 166.883 23.6931 167.245 22.9675L167.517 23.0219C167.282 23.5117 166.983 23.929 166.621 24.2736C166.277 24.6183 165.888 24.9085 165.454 25.1444C165.038 25.3621 164.594 25.5253 164.124 25.6342C163.653 25.743 163.183 25.7974 162.712 25.7974C161.88 25.7974 161.111 25.6432 160.405 25.3349C159.699 25.0083 159.093 24.5729 158.587 24.0287C158.08 23.4845 157.682 22.8496 157.392 22.124C157.121 21.3802 156.985 20.5911 156.985 19.7566C156.985 19.0129 157.103 18.2872 157.338 17.5798C157.591 16.8723 157.962 16.2464 158.451 15.7022C158.958 15.1398 159.582 14.6954 160.324 14.3689C161.066 14.0242 161.925 13.8519 162.902 13.8519C163.572 13.8519 164.223 13.9426 164.857 14.124C165.49 14.2872 166.042 14.5231 166.513 14.8315L165.725 15.9471Z" stroke="#033B4A" mask="url(#path-1-outside-1_1283_40)"/>
<path d="M167.82 14.124H169.965L174.308 23.811L174.443 23.4573C174.841 22.4959 175.167 21.6342 175.421 20.8723C175.692 20.1104 175.918 19.4119 176.099 18.777C176.298 18.124 176.461 17.5072 176.588 16.9267C176.732 16.328 176.868 15.7113 176.995 15.0763L177.158 14.124H178.515L173.9 25.4981C173.593 26.26 173.249 27.0038 172.869 27.7294C172.507 28.4732 172.091 29.1353 171.62 29.7158C171.168 30.2963 170.652 30.768 170.073 31.1308C169.512 31.4936 168.879 31.675 168.173 31.675C167.594 31.675 167.042 31.5752 166.517 31.3757C165.975 31.1943 165.468 30.9403 164.997 30.6138L165.947 29.6614C166.526 30.1693 167.06 30.514 167.549 30.6954C168.037 30.8768 168.49 30.9675 168.906 30.9675C169.503 30.9675 170.028 30.7952 170.48 30.4505C170.951 30.1058 171.358 29.6795 171.702 29.1716C172.064 28.6818 172.362 28.1466 172.598 27.5661C172.851 27.0038 173.05 26.4868 173.195 26.0151L167.82 14.124Z" stroke="#033B4A" mask="url(#path-1-outside-1_1283_40)"/>
</svg>
